<svg xmlns="http://www.w3.org/2000/svg" xmlns:xlink="http://www.w3.org/1999/xlink" width="200" height="158" viewBox="0 0 200 158" fill="none"><defs><rect id="path_0" x="0" y="0" width="200" height="157.53846153846155" /></defs><g opacity="1" transform="translate(0 0)  rotate(0 100 78.76923076923077)"><mask id="bg-mask-0" fill="white"><use xlink:href="#path_0"></use></mask><g mask="url(#bg-mask-0)" ><path id="路径 1" fill-rule="evenodd" style="fill:#DBE8EC" transform="translate(16.407107692306507 38.79003384615385)  rotate(0 83.59289230769348 47.76162307692308)" opacity="1" d="M4.02 27.29L19.59 27.29C21.81 27.29 23.61 25.49 23.61 23.27L23.61 17.67C23.61 15.45 21.81 13.65 19.59 13.65C17.36 13.65 15.56 11.84 15.56 9.62L15.56 4.02C15.56 2.96 15.99 1.93 16.74 1.18C17.5 0.42 18.52 0 19.59 0L155.56 0C156.63 0 157.65 0.42 158.4 1.18C159.16 1.93 159.58 2.96 159.58 4.02L159.58 9.62C159.58 11.84 157.78 13.65 155.56 13.65L155.11 13.65C152.89 13.65 148.01 15.45 148.01 17.67L148.01 23.27C148.01 25.49 149.81 27.29 152.03 27.29L163.16 27.29C164.23 27.29 165.25 27.72 166.01 28.47C166.76 29.23 167.19 30.25 167.19 31.32L167.19 36.91C167.19 39.14 165.38 40.94 163.16 40.94L156.88 40.94C154.66 40.94 152.86 42.74 152.86 44.96L152.86 50.56C152.86 52.78 154.66 54.58 156.88 54.58L159.38 54.58C161.6 54.58 163.41 56.39 163.41 58.61L163.41 64.21C163.41 66.43 161.6 68.23 159.38 68.23L151.15 68.23C148.93 68.23 147.13 70.03 147.13 72.26L147.13 77.85C147.13 80.08 148.93 81.88 151.15 81.88L154.64 81.88C155.71 81.88 156.73 82.3 157.49 83.06C158.24 83.81 158.67 84.83 158.67 85.9L158.67 91.5C158.67 93.72 156.87 95.52 154.64 95.52L5.73 95.52C3.51 95.52 1.71 93.72 1.71 91.5L1.71 85.9C1.71 84.83 2.13 83.81 2.89 83.06C3.64 82.3 4.66 81.88 5.73 81.88L11 81.88C13.22 81.88 15.02 80.08 15.02 77.85L15.02 72.26C15.02 70.03 13.22 68.23 11 68.23L10.12 68.23C7.89 68.23 6.09 66.43 6.09 64.21L6.09 58.61C6.09 56.39 7.89 54.58 10.12 54.58L10.13 54.58C11.2 54.58 12.22 54.16 12.98 53.41C13.73 52.65 14.16 51.63 14.16 50.56L14.16 44.96C14.16 42.74 12.35 40.94 10.13 40.94L4.02 40.94C1.8 40.94 0 39.14 0 36.91L0 31.32C0 30.25 0.42 29.23 1.18 28.47C1.93 27.72 2.96 27.29 4.02 27.29Z" /><path id="路径 2" fill-rule="evenodd" style="fill:#F9AE2B" transform="translate(25.858068635297453 49.960738053234465)  rotate(0 21.19135356285763 11.817217137480018)" opacity="1" d="M0.03,18.34C0.36,21.35 2.9,23.63 5.93,23.63L34.69,23.63C38.94,23.63 42.38,20.19 42.38,15.94C42.38,13.72 41.43,11.61 39.76,10.15C38.09,8.69 35.87,8.02 33.67,8.32C32.63,3.92 28.96,0.63 24.48,0.08C19.99,-0.47 15.64,1.83 13.56,5.84C12.89,5.62 12.2,5.51 11.49,5.51C7.89,5.51 4.91,8.31 4.67,11.9C1.71,12.55 -0.29,15.32 0.03,18.34Z " /><path id="路径 3" fill-rule="evenodd" style="fill:#409CB5" transform="translate(71.55648628333043 59.58526339268282)  rotate(0 24.61674954054844 28.890466686146336)" opacity="1" d="M40.97,43.02C50.52,34.53 51.99,20.14 44.35,9.9C36.7,-0.35 22.49,-3.04 11.64,3.7C0.78,10.44 -3.12,24.37 2.67,35.77C8.46,47.16 22.01,52.23 33.86,47.43L39.43,55.68C40.58,57.68 43.14,58.37 45.14,57.23C47.14,56.08 47.83,53.52 46.68,51.52L40.97,43.02Z " /><path id="路径 4" fill-rule="evenodd" style="fill:#EE781D" transform="translate(78.6723076923077 66.60461538461539)  rotate(0 17.55323076923077 17.55323076923077)" opacity="1" d="M17.55,0C7.86,0 0,7.86 0,17.55C0,27.25 7.86,35.11 17.55,35.11C27.25,35.11 35.11,27.25 35.11,17.55C35.11,7.86 27.25,0 17.55,0Z " /><path id="路径 5" fill-rule="evenodd" style="fill:#E06714" transform="translate(93.72126153846155 66.60476614718272)  rotate(0 10.02871857938566 17.552820503029693)" opacity="1" d="M0,0.18C8.64,1.43 15.05,8.83 15.05,17.55C15.05,26.28 8.64,33.68 0,34.93C6.5,35.86 12.99,33.09 16.8,27.74C20.61,22.39 21.12,15.35 18.11,9.51C15.1,3.67 9.08,0 2.5,0C1.67,0 0.83,0.06 0,0.18Z " /><path id="路径 6" fill-rule="evenodd" style="fill:#F9AE2B" transform="translate(84.10707692307693 81.7833846153846)  rotate(0 2.716615384615385 2.716615384615385)" opacity="1" d="M2.72,0C1.22,0 0,1.22 0,2.72C0,4.22 1.22,5.43 2.72,5.43C4.22,5.43 5.43,4.22 5.43,2.72C5.43,1.22 4.22,0 2.72,0Z " /><path id="路径 7" fill-rule="evenodd" style="fill:#E06714" transform="translate(103.12830769230769 78.93384615384615)  rotate(0 1.8806153846153848 1.8806153846153848)" opacity="1" d="M1.88,0C0.84,0 0,0.84 0,1.88C0,2.92 0.84,3.76 1.88,3.76C2.92,3.76 3.76,2.92 3.76,1.88C3.76,0.84 2.92,0 1.88,0Z " /><path id="路径 8" fill-rule="evenodd" style="fill:#E06714" transform="translate(93.25353846153847 75.86584615384616)  rotate(0 1.2538461538461538 1.2538461538461538)" opacity="1" d="M1.25,0C0.56,0 0,0.56 0,1.25C0,1.95 0.56,2.51 1.25,2.51C1.95,2.51 2.51,1.95 2.51,1.25C2.51,0.56 1.95,0 1.25,0Z " /><path id="路径 9" fill-rule="evenodd" style="fill:#E06714" transform="translate(93.71784615384617 92.56338461538462)  rotate(0 1.2538461538461538 1.2538461538461538)" opacity="1" d="M1.25,0C0.56,0 0,0.56 0,1.25C0,1.95 0.56,2.51 1.25,2.51C1.95,2.51 2.51,1.95 2.51,1.25C2.51,0.56 1.95,0 1.25,0Z " /><path id="路径 10" fill-rule="evenodd" style="fill:#F9AE2B" transform="translate(100.52123076923077 87.52892307692309)  rotate(0 1.6963076923076923 1.6963076923076923)" opacity="1" d="M1.7,0C0.76,0 0,0.76 0,1.7C0,2.63 0.76,3.39 1.7,3.39C2.63,3.39 3.39,2.63 3.39,1.7C3.39,0.76 2.63,0 1.7,0Z " /><path id="路径 11" fill-rule="evenodd" style="fill:#3086A3" transform="translate(82.1796923076923 99.39907692307692)  rotate(0 0.9636923076923078 0.9636923076923078)" opacity="1" d="M0.96,0C0.43,0 0,0.43 0,0.96C0,1.5 0.43,1.93 0.96,1.93C1.5,1.93 1.93,1.5 1.93,0.96C1.93,0.43 1.5,0 0.96,0Z " /><path id="路径 12" fill-rule="evenodd" style="fill:#3086A3" transform="translate(113.77876923076923 72.86030769230769)  rotate(0 0.9636923076923078 0.9636923076923078)" opacity="1" d="M0.96,0C0.43,0 0,0.43 0,0.96C0,1.5 0.43,1.93 0.96,1.93C1.5,1.93 1.93,1.5 1.93,0.96C1.93,0.43 1.5,0 0.96,0Z " /><g opacity="1" transform="translate(75.27756822850252 63.110960384315746)  rotate(0 19.43979588574874 21.14260849428465)"><path id="路径 13" fill-rule="evenodd" style="fill:#3086A3" transform="translate(10.56521330995902 31.363808846453498)  rotate(0 14.157189230769228 5.460704071057902)" opacity="1" d="M22.69,5.71C21.61,6.46 20.47,7.13 19.28,7.71C18.08,8.27 16.84,8.72 15.57,9.07C13.01,9.75 10.35,9.97 7.72,9.71C5.04,9.44 2.44,8.71 0,7.58C2.26,9.17 4.86,10.23 7.59,10.67C8.28,10.78 8.97,10.86 9.67,10.9C10.36,10.94 11.06,10.91 11.76,10.91C14.56,10.77 17.29,10.03 19.79,8.75C21.02,8.11 22.19,7.34 23.28,6.47C24.34,5.58 25.31,4.59 26.18,3.5C27.01,2.42 27.73,1.24 28.31,0C27.52,1.1 26.66,2.13 25.72,3.11C24.78,4.05 23.77,4.92 22.69,5.71Z " /><path id="路径 14" fill-rule="evenodd" style="fill:#3086A3" transform="translate(0 0)  rotate(0 13.745005116517978 12.575313653995982)" opacity="1" d="M22.18,0.7C23.97,0.73 25.75,0.98 27.49,1.42C25.8,0.73 24.03,0.28 22.22,0.1C20.38,-0.08 18.54,-0.01 16.72,0.31C15.81,0.47 14.92,0.7 14.04,0.99C13.6,1.13 13.17,1.31 12.74,1.47C12.31,1.66 11.88,1.82 11.47,2.04L10.85,2.35L10.24,2.69C9.84,2.91 9.46,3.18 9.06,3.43C8.29,3.95 7.56,4.51 6.86,5.13C6.17,5.74 5.52,6.41 4.92,7.11C4.31,7.81 3.75,8.55 3.24,9.33C2.23,10.88 1.44,12.56 0.89,14.33C-0.22,17.84 -0.29,21.6 0.67,25.15C0.19,21.61 0.58,18 1.8,14.64C3.02,11.33 5.04,8.38 7.68,6.05C8.33,5.46 9.02,4.92 9.74,4.42C10.46,3.93 11.22,3.48 11.99,3.08C13.55,2.27 15.21,1.65 16.92,1.25C18.64,0.86 20.41,0.67 22.18,0.7Z " /></g><path id="分组 2" fill-rule="evenodd" style="fill:#409CB5" transform="translate(30.374246153846162 60.1055723076923)  rotate(0 67.01273692307693 29.637793846153844)" opacity="1" d="M39.2 56.65C32.55 55.99 32.17 55.52 32.17 49.33L32.17 42.21L41.36 42.21L41.36 37.7L32.17 37.7L32.17 0L27.95 0C18.57 13.04 8.91 26.73 0 39.39L0 42.21L24.76 42.21L24.76 49.24C24.76 55.43 24.29 55.99 17.26 56.65L17.26 59.28L39.2 59.28L39.2 56.65Z M5.81504 37.7081L24.765 37.7081L24.765 9.84813C18.855 18.4781 12.285 28.0381 5.81504 37.7081Z M131.864 59.28L131.864 56.65C125.214 55.99 124.834 55.52 124.834 49.33L124.834 42.21L134.024 42.21L134.024 37.7L124.834 37.7L124.834 0L120.614 0C111.234 13.04 101.574 26.73 92.664 39.39L92.664 42.21L117.424 42.21L117.424 49.24C117.424 55.43 116.954 55.99 109.924 56.65L109.924 59.28L131.864 59.28Z M98.479 37.7081L117.429 37.7081L117.429 9.84813C111.519 18.4781 104.949 28.0381 98.479 37.7081Z " /><g opacity="1" transform="translate(114.15670251524166 23.224720830585557)  rotate(0 27.912252066552295 53.98673959424882)"><path id="路径 19" fill-rule="evenodd" style="fill:#F9AE2B" transform="translate(0 0)  rotate(0 27.912252066552295 15.565084213072856)" opacity="1" d="M15.14,7.26C10.39,7.26 6.47,10.95 6.15,15.68C2.25,16.53 -0.38,20.18 0.05,24.15C0.47,28.12 3.82,31.13 7.82,31.13L45.69,31.13C51.29,31.13 55.82,26.59 55.82,20.99C55.83,18.07 54.56,15.29 52.36,13.37C50.16,11.44 47.24,10.56 44.35,10.96C42.98,5.16 38.15,0.83 32.24,0.11C26.33,-0.62 20.6,2.41 17.86,7.69C16.98,7.4 16.06,7.26 15.14,7.26Z " /><path id="路径 20" fill-rule="evenodd" style="fill:#F9AE2B" transform="translate(13.388604894345567 84.33904202158499)  rotate(0 21.191346483405063 11.81721858345632)" opacity="1" d="M24.48,0.08C19.99,-0.47 15.64,1.83 13.56,5.84C12.89,5.62 12.2,5.51 11.49,5.51C7.89,5.51 4.91,8.31 4.67,11.9C1.71,12.55 -0.29,15.32 0.03,18.34C0.36,21.35 2.9,23.63 5.93,23.63L34.69,23.63C38.94,23.63 42.38,20.19 42.38,15.94C42.38,13.72 41.43,11.61 39.76,10.15C38.09,8.69 35.87,8.02 33.67,8.32C32.63,3.92 28.96,0.63 24.48,0.08Z " /></g><path  id="路径 21" style="stroke:#B9D4DB; stroke-width:0.9299999999999999; stroke-opacity:1; stroke-dasharray:0 0" transform="translate(36.684615384615384 36.716)  rotate(0 4.969692307692307 0)" d="M9.94,0Z M0,0L9.94,0 " /><path  id="路径 22" style="stroke:#B9D4DB; stroke-width:0.9299999999999999; stroke-opacity:1; stroke-dasharray:0 0" transform="translate(36.684615384615384 39.580615384615385)  rotate(0 4.969692307692307 0)" d="M9.94,0Z M0,0L9.94,0 " /><path  id="路径 23" style="stroke:#B9D4DB; stroke-width:0.9299999999999999; stroke-opacity:1; stroke-dasharray:0 0" transform="translate(36.684615384615384 42.44553846153846)  rotate(0 4.969692307692307 0)" d="M9.94,0Z M0,0L9.94,0 " /><path  id="路径 24" style="stroke:#B9D4DB; stroke-width:0.9299999999999999; stroke-opacity:1; stroke-dasharray:0 0" transform="translate(84.18307692307694 121.61753846153846)  rotate(0 4.969692307692307 0)" d="M9.94,0Z M0,0L9.94,0 " /><path  id="路径 25" style="stroke:#B9D4DB; stroke-width:0.9299999999999999; stroke-opacity:1; stroke-dasharray:0 0" transform="translate(84.18307692307694 124.48246153846154)  rotate(0 4.969692307692307 0)" d="M9.94,0Z M0,0L9.94,0 " /><path  id="路径 26" style="stroke:#B9D4DB; stroke-width:0.9299999999999999; stroke-opacity:1; stroke-dasharray:0 0" transform="translate(84.18307692307694 127.34707692307693)  rotate(0 4.969692307692307 0)" d="M9.94,0Z M0,0L9.94,0 " /><path  id="路径 27" style="stroke:#B9D4DB; stroke-width:0.9299999999999999; stroke-opacity:1; stroke-dasharray:0 0" transform="translate(164.95846153846156 83.68676923076924)  rotate(0 4.969538461538465 0)" d="M9.94,0Z M0,0L9.94,0 " /><path  id="路径 28" style="stroke:#B9D4DB; stroke-width:0.9299999999999999; stroke-opacity:1; stroke-dasharray:0 0" transform="translate(164.95846153846156 86.55169230769232)  rotate(0 4.969538461538465 0)" d="M9.94,0Z M0,0L9.94,0 " /><path  id="路径 29" style="stroke:#B9D4DB; stroke-width:0.9299999999999999; stroke-opacity:1; stroke-dasharray:0 0" transform="translate(164.95846153846156 89.4163076923077)  rotate(0 4.969538461538465 0)" d="M9.94,0Z M0,0L9.94,0 " /><path id="路径 30" fill-rule="evenodd" style="fill:#B9D4DB" transform="translate(19.841846153846156 117.9076923076923)  rotate(0 5.054769230769232 5.054769230769232)" opacity="1" d="M5.05,0C2.26,0 0,2.26 0,5.05C0,7.85 2.26,10.11 5.05,10.11C7.85,10.11 10.11,7.85 10.11,5.05C10.11,2.26 7.85,0 5.05,0Z " /><path id="路径 31" fill-rule="evenodd" style="fill:#B9D4DB" transform="translate(28.62523076923077 112.21846153846154)  rotate(0 2.632923076923077 2.632923076923077)" opacity="1" d="M2.63,0C1.18,0 0,1.18 0,2.63C0,4.09 1.18,5.27 2.63,5.27C4.09,5.27 5.27,4.09 5.27,2.63C5.27,1.18 4.09,0 2.63,0Z " /><path id="路径 32" fill-rule="evenodd" style="fill:#B9D4DB" transform="translate(42.06584615384615 124.3476923076923)  rotate(0 2.278769230769231 2.278769230769231)" opacity="1" d="M2.28,0C1.02,0 0,1.02 0,2.28C0,3.54 1.02,4.56 2.28,4.56C3.54,4.56 4.56,3.54 4.56,2.28C4.56,1.02 3.54,0 2.28,0Z " /><path id="路径 33" fill-rule="evenodd" style="fill:#B9D4DB" transform="translate(37.53353846153846 118.35292307692309)  rotate(0 1.5187692307692309 1.5187692307692309)" opacity="1" d="M1.52,0C0.68,0 0,0.68 0,1.52C0,2.36 0.68,3.04 1.52,3.04C2.36,3.04 3.04,2.36 3.04,1.52C3.04,0.68 2.36,0 1.52,0Z " /><path id="路径 34" fill-rule="evenodd" style="fill:#B9D4DB" transform="translate(31.836307692307695 123.91569230769231)  rotate(0 3.640923076923077 3.640923076923077)" opacity="1" d="M3.64,0C1.63,0 0,1.63 0,3.64C0,5.65 1.63,7.28 3.64,7.28C5.65,7.28 7.28,5.65 7.28,3.64C7.28,1.63 5.65,0 3.64,0Z " /><path id="路径 35" fill-rule="evenodd" style="fill:#B9D4DB" transform="translate(89.80123076923077 44.88030769230769)  rotate(0 5.054769230769232 5.054769230769232)" opacity="1" d="M5.05,0C2.26,0 0,2.26 0,5.05C0,7.85 2.26,10.11 5.05,10.11C7.85,10.11 10.11,7.85 10.11,5.05C10.11,2.26 7.85,0 5.05,0Z " /><path id="路径 36" fill-rule="evenodd" style="fill:#B9D4DB" transform="translate(82.55015384615385 52.711076923076924)  rotate(0 2.278769230769231 2.278769230769231)" opacity="1" d="M2.28,0C1.02,0 0,1.02 0,2.28C0,3.54 1.02,4.56 2.28,4.56C3.54,4.56 4.56,3.54 4.56,2.28C4.56,1.02 3.54,0 2.28,0Z " /><path id="路径 37" fill-rule="evenodd" style="fill:#B9D4DB" transform="translate(78.39446153846154 42.65323076923077)  rotate(0 3.640923076923077 3.640923076923077)" opacity="1" d="M3.64,0C1.63,0 0,1.63 0,3.64C0,5.65 1.63,7.28 3.64,7.28C5.65,7.28 7.28,5.65 7.28,3.64C7.28,1.63 5.65,0 3.64,0Z " /></g></g></svg>