<svg xmlns="http://www.w3.org/2000/svg" xmlns:xlink="http://www.w3.org/1999/xlink" width="26" height="26" viewBox="0 0 26 26" fill="none"><defs><rect id="path_0" x="0" y="0" width="19.5" height="21.675036450203073" /></defs><g opacity="1" transform="translate(0 0)  rotate(0 13 13)"><g opacity="1" transform="translate(3.25 2.162481774898442)  rotate(0 9.75 10.837518225101537)"><mask id="bg-mask-0" fill="white"><use xlink:href="#path_0"></use></mask><g mask="url(#bg-mask-0)" ><path id="路径 1" fill-rule="evenodd" style="fill:#8CC7F5" transform="translate(0 0)  rotate(0 9.75 10.837518225101537)" opacity="1" d="M10.91,0.75C10.68,0.25 10.29,0 9.75,0C9.21,0 8.82,0.25 8.6,0.75L0.1,19.85C0,20.1 -0.03,20.36 0.03,20.62C0.08,20.88 0.2,21.1 0.39,21.29C0.57,21.48 0.8,21.6 1.06,21.65C1.32,21.7 1.57,21.67 1.82,21.57L9.75,18.17L17.68,21.57C17.93,21.67 18.18,21.7 18.44,21.65C18.7,21.6 18.93,21.48 19.12,21.29C19.3,21.1 19.42,20.88 19.47,20.62C19.53,20.36 19.5,20.1 19.4,19.85L10.91,0.75Z " /></g></g></g></svg>